<svg width="510.000000" height="510.000000" viewBox="0 0 510 510" fill="none" xmlns="http://www.w3.org/2000/svg" xmlns:xlink="http://www.w3.org/1999/xlink">
	<desc>
			Created with Pixso.
	</desc>
	<defs>
		<clipPath id="clip1_1314">
			<rect id="Error Dog 1" width="510.000000" height="510.000000" fill="white" fill-opacity="0"/>
		</clipPath>
	</defs>
	<rect id="Error Dog 1" width="510.000000" height="510.000000" fill="#FFFFFF" fill-opacity="0"/>
	<g clip-path="url(#clip1_1314)">
		<path id="XMLID_58_" d="M317.47 317.56L308.38 317.56C310.16 315.09 311.26 311.69 311.26 308.04C311.26 300.3 306.51 294.1 300.56 294.1L85.59 294.1C79.64 294.1 74.88 300.39 74.88 308.04C74.88 315.77 79.64 321.98 85.59 321.98L91.71 321.98C92.64 321.98 93.5 322.23 94.17 322.66C92.64 325.04 91.71 328.18 91.71 331.5C91.71 339.23 96.47 345.44 102.42 345.44L108.54 345.44C111.94 345.44 114.66 349.09 114.66 353.6L114.66 353.68C114.66 361.42 119.42 367.62 125.37 367.62L278.12 367.62C284.07 367.62 288.82 361.33 288.82 353.68L288.82 353.6C288.82 349.18 291.54 345.44 294.95 345.44L317.47 345.44C323.42 345.44 328.18 339.15 328.18 331.5C328.18 323.76 323.42 317.56 317.47 317.56Z" fill="#E1ECFF" fill-opacity="1.000000" fill-rule="evenodd"/>
		<path id="XMLID_197_" d="M302 241.65L187.51 198.13L185.89 277.86L287.21 325.29C289.85 326.57 292.91 324.78 293.25 321.89L302 241.65Z" fill="#FC7EC1" fill-opacity="1.000000" fill-rule="evenodd"/>
		<path id="XMLID_195_" d="M121.46 305.57L185.89 277.86L187.51 198.13L110.75 230.77L115.34 301.83C115.6 304.89 118.66 306.76 121.46 305.57Z" fill="#69B3F9" fill-opacity="1.000000" fill-rule="evenodd"/>
		<path id="XMLID_194_" d="M187.51 198.13L164.13 198.13C159.71 198.13 155.38 199.07 151.38 200.85L87.54 229.07C85.84 229.84 86.44 232.39 88.31 232.22L110.67 230.77L187.51 198.13Z" fill="#97B7FF" fill-opacity="1.000000" fill-rule="evenodd"/>
		<path id="XMLID_193_" d="M187.51 198.13L302 241.65L314.32 241.65C315.77 241.65 316.11 239.61 314.75 239.1L207.4 199.41C205.19 198.56 202.81 198.13 200.43 198.13L187.51 198.13Z" fill="#97B7FF" fill-opacity="1.000000" fill-rule="evenodd"/>
		<path id="XMLID_175_" d="M215.05 296.65L206.63 320.7C206.63 320.7 190.82 304.64 177.48 277.01C174.08 270.04 172.8 262.65 172.72 255.59C172.46 237.83 180.28 222.27 183.77 221.93C187.42 221.59 182.66 236.13 183.94 250.75C184.36 255.59 185.38 260.35 187.59 264.69C198.98 287.04 215.05 296.65 215.05 296.65Z" fill="#FF8D76" fill-opacity="1.000000" fill-rule="evenodd"/>
		<path id="XMLID_169_" d="M183.85 250.75C181.22 252.36 176.71 254.74 172.63 255.51C172.38 237.74 180.2 222.19 183.68 221.85C187.34 221.59 182.66 236.13 183.85 250.75Z" fill="#FFD3B3" fill-opacity="1.000000" fill-rule="evenodd"/>
		<path id="XMLID_185_" d="M270.47 303.87C269.79 321.13 256.27 335.75 238.25 338.3C235.28 338.72 232.13 338.98 228.73 338.98C225.42 338.98 222.44 338.89 219.64 338.55C202.72 336.77 189.38 324.01 187.34 308.04C185.38 292.57 184.02 269.45 190.23 253.81C191.76 249.9 193.88 246.58 196.35 243.69C204.85 234 217.6 230.52 227.63 230.35C237.74 230.18 251.94 232.73 260.95 242.59C265.11 247.09 268.17 253.13 269.28 261.2C271.06 274.54 270.98 291.12 270.47 303.87Z" fill="#FEA691" fill-opacity="1.000000" fill-rule="evenodd"/>
		<path id="XMLID_184_" d="M227.46 322.74C243.78 323 255.51 316.11 256.61 298.6C257.72 281.09 260.26 252.79 228.73 252.11C197.2 251.43 200.51 283.22 200.26 295.12C200 307.01 207.31 322.4 227.46 322.74Z" fill="#FFD3B3" fill-opacity="1.000000" fill-rule="evenodd"/>
		<path id="XMLID_181_" d="M260.86 242.67C252.19 247.09 240.38 249.9 227.37 249.9C215.47 249.9 204.59 247.6 196.26 243.86C204.76 234.17 217.51 230.69 227.54 230.52C237.66 230.26 251.85 232.81 260.86 242.67Z" fill="#FF8D76" fill-opacity="1.000000" fill-rule="evenodd"/>
		<path id="XMLID_25_" d="M110.75 230.77L115.34 301.66C115.6 305.66 117.89 309.23 121.46 311.1L220.57 363.54L222.1 278.03L110.75 230.77Z" fill="#97B7FF" fill-opacity="1.000000" fill-rule="evenodd"/>
		<path id="XMLID_30_" d="M113.64 275.57L194.9 315.18C199.15 317.22 204.17 315.94 206.89 312.12L222.02 290.53L222.02 278.03L110.67 230.77L113.64 275.57Z" fill="#7E9CFC" fill-opacity="1.000000" fill-rule="evenodd"/>
		<path id="XMLID_28_" d="M99.28 262.22L195.92 307.78C198.73 309.14 202.04 308.21 203.83 305.57L222.19 278.03L110.84 230.77L96.73 253.21C94.6 256.44 95.88 260.6 99.28 262.22Z" fill="#97B7FF" fill-opacity="1.000000" fill-rule="evenodd"/>
		<path id="XMLID_26_" d="M285.85 331.24L220.57 363.54L222.1 278.03L302 241.65L293.42 320.45C292.91 325.12 290.01 329.12 285.85 331.24Z" fill="#7E9CFC" fill-opacity="1.000000" fill-rule="evenodd"/>
		<path id="XMLID_31_" d="M222.1 290.53L231.11 310.07C233.32 314.84 239.02 316.79 243.69 314.5L297.07 287.55L302.09 241.74L222.19 278.12L222.19 290.53L222.1 290.53Z" fill="#69B3F9" fill-opacity="1.000000" fill-rule="evenodd"/>
		<path id="XMLID_27_" d="M237.66 305.57L222.1 278.03L302 241.65L316.54 266.04C317.98 268.43 317.04 271.57 314.58 272.76L243.95 307.44C241.65 308.54 238.93 307.7 237.66 305.57Z" fill="#97B7FF" fill-opacity="1.000000" fill-rule="evenodd"/>
		<path id="XMLID_147_" d="M320.53 195.07C320.36 198.47 316.54 217.94 297.41 234.34C279.56 249.64 255.42 261.29 255.42 261.29L254.06 225.42C254.06 225.42 275.99 218.96 288.82 207.82C301.66 196.69 306.17 185.72 309.4 184.36C310.76 183.77 311.95 183.85 312.79 184.02C313.99 184.28 314.67 184.96 314.67 184.96C314.67 184.96 314.75 184.96 314.92 184.87C315.51 184.7 316.96 184.53 318.32 186.06C319.26 187.08 319 190.06 319 190.06C319 190.06 320.02 191.08 320.28 193.2C320.53 193.8 320.62 194.39 320.53 195.07Z" fill="#FEA691" fill-opacity="1.000000" fill-rule="evenodd"/>
		<path id="XMLID_146_" d="M312.29 207.25C310.19 210.8 306.15 212.3 303.29 210.6C300.42 208.9 299.81 204.64 301.91 201.09C304.02 197.54 308.05 196.04 310.92 197.74C313.79 199.44 314.4 203.7 312.29 207.25Z" fill="#FFD3B3" fill-opacity="1.000000" fill-rule="evenodd"/>
		<path id="XMLID_141_" d="M315.09 184.96C314.92 185.72 314.58 187 313.82 188.87C312.46 192.1 311.44 193.54 310.93 193.71C309.65 194.22 309.48 192.44 310.76 189.97C311.69 188.02 312.54 185.21 312.88 184.11C314.07 184.36 314.75 185.04 314.75 185.04C314.75 185.04 314.92 184.96 315.09 184.96Z" fill="#FF8D76" fill-opacity="1.000000" fill-rule="evenodd"/>
		<path id="XMLID_140_" d="M320.53 193.29C320.36 193.63 320.28 193.97 320.1 194.39C318.66 197.62 317.56 198.98 317.04 199.15C315.77 199.58 315.69 197.88 316.96 195.41C318.32 192.95 319.26 190.14 319.26 190.14C319.26 190.14 320.19 191.16 320.53 193.29Z" fill="#FF8D76" fill-opacity="1.000000" fill-rule="evenodd"/>
		<path id="XMLID_139_" d="M256.44 260.95C256.01 260.95 255.59 260.69 255.42 260.26C255.17 259.67 255.42 258.99 256.01 258.74C256.19 258.65 276.5 249.81 293.76 235.62C315.6 217.68 318.32 199.66 318.32 199.49C318.41 198.9 319 198.39 319.6 198.47C320.19 198.56 320.7 199.15 320.62 199.75C320.53 200.51 317.81 218.7 295.2 237.32C277.69 251.68 257.21 260.69 256.95 260.78C256.78 260.86 256.61 260.95 256.44 260.95Z" fill="#FF8D76" fill-opacity="1.000000" fill-rule="evenodd"/>
		<path id="XMLID_148_" d="M236.89 157.33C236.89 157.33 245.39 138.03 250.41 137.1C255.34 136.17 257.89 148.32 259.93 158.44C262.05 168.55 262.56 176.97 262.56 176.97L236.89 157.33Z" fill="#FEA691" fill-opacity="1.000000" fill-rule="evenodd"/>
		<path id="XMLID_154_" d="M241.31 157.25C241.31 157.25 246.92 144.67 250.15 144.07C253.38 143.48 255 151.47 256.35 158.01C257.72 164.64 258.14 170.08 258.14 170.08L241.31 157.25Z" fill="#FFD3B3" fill-opacity="1.000000" fill-rule="evenodd"/>
		<path id="XMLID_158_" d="M218.87 157.33C218.87 157.33 210.37 138.03 205.36 137.1C200.43 136.17 197.88 148.32 195.84 158.44C193.8 168.55 193.2 176.97 193.2 176.97L218.87 157.33Z" fill="#FEA691" fill-opacity="1.000000" fill-rule="evenodd"/>
		<path id="XMLID_157_" d="M214.45 157.25C214.45 157.25 208.84 144.67 205.61 144.07C202.38 143.48 200.77 151.47 199.41 158.01C198.05 164.64 197.62 170.08 197.62 170.08L214.45 157.25Z" fill="#FFD3B3" fill-opacity="1.000000" fill-rule="evenodd"/>
		<path id="XMLID_156_" d="M265.03 210.37L242.76 209.78L210.54 208.93L189.89 208.42C189.89 208.42 188.95 179.43 197.37 165.49C201.79 158.1 210.03 152.91 219.13 150.78C223.72 149.68 228.56 149.34 233.24 149.94C239.36 150.7 245.22 153 249.81 157.08C264.69 170.25 263.16 182.49 264.09 192.61C265.03 202.72 265.03 210.37 265.03 210.37Z" fill="#FEA691" fill-opacity="1.000000" fill-rule="evenodd"/>
		<path id="XMLID_152_" d="M242.76 209.78L210.54 208.93C212.24 204.59 215.22 195.58 216.92 183.34C218.62 171.44 218.96 158.18 219.04 150.78C223.63 149.68 228.48 149.34 233.15 149.94C233.24 156.82 233.75 168.81 235.79 182.24C238.08 197.2 241.23 206.04 242.76 209.78Z" fill="#FFD3B3" fill-opacity="1.000000" fill-rule="evenodd"/>
		<path id="XMLID_82_" d="M268.09 218.79C268.09 232.81 249.9 244.2 227.46 244.2C205.02 244.2 186.83 232.81 186.83 218.79C186.83 201.36 205.02 193.37 227.46 193.37C249.9 193.37 268.09 202.21 268.09 218.79Z" fill="#FFD3B3" fill-opacity="1.000000" fill-rule="evenodd"/>
		<path id="XMLID_122_" d="M217.26 203.23C219.47 200.09 235.87 198.98 238.17 202.47C240.46 205.87 234.43 213.26 228.56 213.26C222.7 213.26 214.28 207.4 217.26 203.23Z" fill="#413F4C" fill-opacity="1.000000" fill-rule="evenodd"/>
		<path id="XMLID_160_" d="M199.07 164.64C198.81 164.64 198.56 164.56 198.39 164.39C197.88 164.05 197.79 163.28 198.13 162.77C198.22 162.6 201.02 158.95 205.87 155.8C211.65 151.98 214.62 151.21 214.71 151.21C215.3 151.04 215.98 151.38 216.07 152.06C216.24 152.66 215.9 153.34 215.22 153.42C215.22 153.42 212.41 154.19 207.06 157.75C202.55 160.73 199.83 164.22 199.83 164.22C199.75 164.47 199.41 164.64 199.07 164.64Z" fill="#FF8D76" fill-opacity="1.000000" fill-rule="evenodd"/>
		<path id="XMLID_162_" d="M255.17 164.64C255.42 164.64 255.68 164.56 255.85 164.39C256.35 164.05 256.44 163.28 256.1 162.77C256.01 162.6 253.21 158.95 248.37 155.8C242.59 151.98 239.61 151.21 239.53 151.21C238.93 151.04 238.25 151.38 238.17 152.06C238 152.66 238.34 153.34 239.02 153.42C239.02 153.42 241.82 154.19 247.18 157.75C251.68 160.73 254.4 164.22 254.4 164.22C254.49 164.47 254.83 164.64 255.17 164.64Z" fill="#FF8D76" fill-opacity="1.000000" fill-rule="evenodd"/>
		<path id="XMLID_112_" d="M219.38 225.67C219.38 225.67 225.93 224.99 229.07 219.89C232.81 225.08 238.25 223.89 238.25 223.89C238.25 223.89 239.36 234.09 230.09 234.85C220.32 235.7 219.38 225.67 219.38 225.67Z" fill="#FF6EA9" fill-opacity="1.000000" fill-rule="evenodd"/>
		<path id="XMLID_110_" d="M228.99 231.54C228.31 231.45 227.71 230.86 227.8 230.18C227.88 226.78 227.63 220.74 227.63 220.66C227.63 219.89 228.14 219.3 228.9 219.3C229.58 219.3 230.26 219.81 230.26 220.57C230.26 220.83 230.52 226.86 230.43 230.35C230.35 230.94 229.75 231.54 228.99 231.54C229.07 231.54 228.99 231.54 228.99 231.54Z" fill="#EA4E95" fill-opacity="1.000000" fill-rule="evenodd"/>
		<path id="XMLID_88_" d="M218.36 227.03C214.37 227.03 211.31 225.59 211.22 225.5C210.46 225.16 210.2 224.23 210.54 223.46C210.88 222.7 211.82 222.44 212.58 222.78C212.92 222.95 221.76 227.2 227.88 219.04C228.14 218.62 228.65 218.45 229.07 218.45C229.58 218.45 230.01 218.7 230.26 219.13C234.34 224.99 242.59 222.02 242.93 221.93C243.69 221.68 244.54 222.02 244.88 222.78C245.14 223.55 244.8 224.4 244.03 224.74C240.63 226.01 233.58 226.95 229.07 222.36C225.59 226.01 221.68 227.03 218.36 227.03Z" fill="#413F4C" fill-opacity="1.000000" fill-rule="evenodd"/>
		<path id="XMLID_99_" d="M249.05 187.34C249.05 189.78 247.37 191.76 245.31 191.76C243.24 191.76 241.57 189.78 241.57 187.34C241.57 184.89 243.24 182.92 245.31 182.92C247.37 182.92 249.05 184.89 249.05 187.34Z" fill="#413F4C" fill-opacity="1.000000" fill-rule="evenodd"/>
		<path id="XMLID_84_" d="M211.31 187.34C211.31 189.78 209.63 191.76 207.57 191.76C205.5 191.76 203.83 189.78 203.83 187.34C203.83 184.89 205.5 182.92 207.57 182.92C209.63 182.92 211.31 184.89 211.31 187.34Z" fill="#413F4C" fill-opacity="1.000000" fill-rule="evenodd"/>
		<path id="XMLID_97_" d="M239.02 173.74C239.7 171.44 243.78 171.7 246.75 172.72C249.73 173.74 252.11 175.69 251.43 176.88C250.75 178.16 237.66 178.16 239.02 173.74Z" fill="#FFD3B3" fill-opacity="1.000000" fill-rule="evenodd"/>
		<path id="XMLID_153_" d="M212.41 173.65C211.65 171.36 207.57 171.7 204.59 172.8C201.62 173.91 199.32 175.86 200.09 177.05C200.85 178.24 213.94 177.99 212.41 173.65Z" fill="#FFD3B3" fill-opacity="1.000000" fill-rule="evenodd"/>
		<path id="XMLID_90_" d="M430.69 340.76L387.26 355.81L367.2 362.78L362.35 364.48L326.99 376.72C321.98 378.5 316.37 377.23 312.46 373.57L307.95 369.24C305.4 366.77 305.57 362.78 307.87 360.48C308.46 359.89 309.23 359.38 310.07 359.12L413.61 323.08C416.67 322.06 419.98 322.66 422.36 324.78L431.97 333.11C432.31 333.37 432.56 333.71 432.82 334.05C434.52 336.43 433.58 339.74 430.69 340.76Z" fill="#BBCBFF" fill-opacity="1.000000" fill-rule="evenodd"/>
		<path id="XMLID_89_" d="M405.19 389.21L356.57 404.77C352.07 406.21 347.14 405.19 343.57 402.05L339.06 398.05C336.6 395.93 336.43 392.44 338.04 390.06C338.81 388.96 339.91 388.11 341.27 387.68L373.49 377.99C373.74 377.91 373.91 377.82 374.08 377.65C375.1 376.89 375.19 375.44 374.17 374.51L362.35 364.39L358.53 361.16L357.85 360.57C354.11 357.42 355.47 351.3 360.23 350.11L376.8 345.78L387.26 355.81L408.25 375.87C408.93 376.46 409.44 377.23 409.78 377.99C411.99 382.16 410.04 387.68 405.19 389.21Z" fill="#BBCBFF" fill-opacity="1.000000" fill-rule="evenodd"/>
		<path id="XMLID_80_" d="M374.17 377.65C375.19 376.89 375.27 375.44 374.25 374.51L362.44 364.39L327.07 376.63C322.06 378.42 316.45 377.14 312.54 373.49L308.04 369.15C305.49 366.69 305.66 362.69 307.95 360.4C310.16 363.63 317.81 371.11 322.82 371.28C327.67 371.45 363.29 358.78 363.29 358.78C363.29 358.78 378.84 372.04 379.44 372.72C381.05 374.42 376.89 376.97 374.17 377.65Z" fill="#99ADF9" fill-opacity="1.000000" fill-rule="evenodd"/>
		<path id="XMLID_78_" d="M430.69 340.76L387.26 355.81L382.67 351.56C382.67 351.56 425.34 336.09 430.86 334.56C431.63 334.39 432.31 334.22 432.99 334.05C434.52 336.43 433.58 339.74 430.69 340.76Z" fill="#99ADF9" fill-opacity="1.000000" fill-rule="evenodd"/>
		<path id="XMLID_76_" d="M405.19 389.21L356.57 404.77C352.07 406.21 347.14 405.19 343.57 402.05L339.06 398.05C336.6 395.93 336.43 392.44 338.04 390.06C341.87 392.7 349.69 398.14 351.64 398.65C354.19 399.24 364.65 395.84 376.04 391.76C387.43 387.68 406.13 380.12 409.87 378.08C411.99 382.16 410.04 387.68 405.19 389.21Z" fill="#99ADF9" fill-opacity="1.000000" fill-rule="evenodd"/>
		<path id="XMLID_183_" d="M411.91 268.6C410.29 263.58 406.04 259.07 397.97 255.17C372.81 242.93 345.52 267.92 329.29 285.43C321.13 294.26 315.94 302.26 314.75 309.23C313.56 316.11 316.28 321.89 324.01 326.14C353.77 342.63 379.69 321.04 395.76 303.53C406.47 291.54 415.31 279.14 411.91 268.6ZM376.55 291.12C361.67 304.47 348.58 316.03 338.13 309.99C337.28 309.48 336.68 308.89 336.34 308.12C334.64 304.21 340.34 296.9 353.68 285.76C369.58 272.42 378.84 265.28 387 268.34C389.04 269.1 390.32 270.04 390.83 271.23C392.61 274.89 387.77 281.01 376.55 291.12Z" fill="#BBCBFF" fill-opacity="1.000000" fill-rule="evenodd"/>
		<path id="XMLID_187_" d="M395.59 303.45C379.52 321.04 353.6 342.63 323.85 326.06C316.11 321.81 313.39 316.03 314.58 309.14C316.96 313.82 321.89 319.94 332.09 322.74C349.69 327.59 367.71 323 386.32 304.98C402.64 289.08 408.17 277.1 411.82 268.6C415.31 279.14 406.47 291.54 395.59 303.45Z" fill="#99ADF9" fill-opacity="1.000000" fill-rule="evenodd"/>
		<path id="XMLID_182_" d="M390.83 271.15C390.23 269.96 388.96 269.02 387 268.26C378.84 265.2 369.58 272.34 353.68 285.68C340.34 296.9 334.64 304.13 336.34 308.04C335.49 307.35 334.56 306.08 334.22 303.36C333.62 298.26 336.77 293.33 345.95 284.83C355.13 276.33 368.3 265.54 376.38 263.84C384.37 262.22 389.98 266.39 390.74 269.7C390.83 270.21 390.83 270.64 390.83 271.15Z" fill="#99ADF9" fill-opacity="1.000000" fill-rule="evenodd"/>
		<path id="XMLID_56_" d="M341.19 242.42L333.54 245.99C329.12 248.03 323.76 246.07 321.81 241.57L281.35 149.25C280.16 146.45 280.75 143.31 282.71 141.18C283.39 140.42 284.24 139.82 285.17 139.39L294.86 135.06C298.69 133.36 303.1 135.06 304.81 138.89L345.52 230.94C345.95 231.79 346.12 232.73 346.2 233.66C346.54 237.23 344.67 240.8 341.19 242.42Z" fill="#BBCBFF" fill-opacity="1.000000" fill-rule="evenodd"/>
		<path id="XMLID_37_" d="M365.75 172.63L327.42 189.89L319.26 193.54L305.82 174.67L336.77 160.64C337.19 160.48 337.53 160.22 337.87 159.88C339.23 158.61 339.49 156.39 338.21 154.78L322.66 135.14C320.19 132 320.53 127.75 322.91 124.95C323.68 124.01 324.7 123.33 325.89 122.82L332.18 120.36C335.41 119.08 339.15 120.02 341.36 122.82L369.32 158.1C369.66 158.52 369.92 158.95 370.17 159.46C372.72 164.22 370.85 170.25 365.75 172.63Z" fill="#BBCBFF" fill-opacity="1.000000" fill-rule="evenodd"/>
		<path id="XMLID_34_" d="M365.75 172.63L327.42 189.89L324.19 183.09C324.19 183.09 356.23 170.08 364.48 165.32C367.54 163.53 369.24 161.41 370.17 159.46C372.72 164.22 370.85 170.25 365.75 172.63Z" fill="#99ADF9" fill-opacity="1.000000" fill-rule="evenodd"/>
		<path id="XMLID_33_" d="M341.19 242.42L333.54 245.99C329.12 248.03 323.76 246.07 321.81 241.57L281.35 149.25C280.16 146.45 280.75 143.31 282.71 141.18C290.87 159.2 326.91 238.76 327.33 239.87C327.84 241.14 328.01 241.99 331.67 240.38C335.07 238.85 343.31 235.79 346.29 233.66C346.54 237.23 344.67 240.8 341.19 242.42Z" fill="#99ADF9" fill-opacity="1.000000" fill-rule="evenodd"/>
		<path id="XMLID_32_" d="M337.79 159.97C339.15 158.69 339.4 156.48 338.13 154.87L322.57 135.23C320.1 132.09 320.45 127.84 322.82 125.03C326.14 129.37 342.8 150.96 344.33 153.76C345.52 155.8 341.02 158.44 337.79 159.97Z" fill="#99ADF9" fill-opacity="1.000000" fill-rule="evenodd"/>
		<path id="XMLID_1_" d="M183.26 152.74C183.26 155.23 181.24 157.25 178.75 157.25C176.26 157.25 174.25 155.23 174.25 152.74C174.25 150.25 176.26 148.24 178.75 148.24C181.24 148.24 183.26 150.25 183.26 152.74Z" fill="#BBCBFF" fill-opacity="1.000000" fill-rule="evenodd"/>
		<path id="XMLID_11_" d="M183.26 135.14C183.26 137.63 181.24 139.65 178.75 139.65C176.26 139.65 174.25 137.63 174.25 135.14C174.25 132.66 176.26 130.64 178.75 130.64C181.24 130.64 183.26 132.66 183.26 135.14Z" fill="#BBCBFF" fill-opacity="1.000000" fill-rule="evenodd"/>
		<path id="XMLID_20_" d="M183.26 117.55C183.26 120.04 181.24 122.06 178.75 122.06C176.26 122.06 174.25 120.04 174.25 117.55C174.25 115.06 176.26 113.05 178.75 113.05C181.24 113.05 183.26 115.06 183.26 117.55Z" fill="#BBCBFF" fill-opacity="1.000000" fill-rule="evenodd"/>
	</g>
</svg>
